# xmcd CD database file
#
# Track frame offsets:
#	150
#	13884
#	35316
#	58990
#	86326
#	135404
#	161019
#	191433
#	230470
#	260620
#	283137
#	299330
#	321380
#
# Disc length: 4711 seconds
#
# Revision: 0
# Processed by: cddbd v1.5.2PL0 Copyright (c) Steve Scherf et al.
# Submitted via: CDex 2.16
#
DISCID=be12650d
DTITLE=Various Artist - EMOTIONAL JAZZ SAXOPHONE [CD2)
DYEAR=2016
DGENRE=Jazz
TTITLE0=Now's The Time-Charlie Parker
TTITLE1=Giant Steps-John Coltrane
TTITLE2=Waltz For Debby-Cannonball Adderley
TTITLE3=Left Alone-Mal Waldron(Jackie McLean)
TTITLE4=I want To Talk About You-John Coltrane
TTITLE5=Three O'Clock In The Morning-Dexter Gordon
TTITLE6=Blue Rondo A La Turk-The Dave Brubeck Quartet(Paul Desmond)
TTITLE7=Since I Fell For You-Stanley Turrentine with The 3 Sounds
TTITLE8=Blues Walk-Lou Donaldson
TTITLE9=Come Rain Or Come Shine-Herb Geller
TTITLE10=Why Was I Born-Dick Johnson
TTITLE11=Hush-A-Bye-Johnny Griffin
TTITLE12=Everything Happy To Me-Stan Gets
EXTD=YEAR: 2016
EXTT0=
EXTT1=
EXTT2=
EXTT3=
EXTT4=
EXTT5=
EXTT6=
EXTT7=
EXTT8=
EXTT9=
EXTT10=
EXTT11=
EXTT12=
PLAYORDER=
